<svg width="16" height="17" viewBox="0 0 16 17" fill="none" xmlns="http://www.w3.org/2000/svg">
<g id="Item &#226;&#134;&#146; Link - Follow us on Instagram &#226;&#134;&#146; Img" clip-path="url(#clip0_1_39)">
<g id="Mask group">
<mask id="mask0_1_39" style="mask-type:luminance" maskUnits="userSpaceOnUse" x="0" y="0" width="16" height="17">
<g id="Group">
<path id="Vector" d="M14 16.7798H2C0.9 16.7798 0 15.8798 0 14.7798V2.77979C0 1.67979 0.9 0.779785 2 0.779785H14C15.1 0.779785 16 1.67979 16 2.77979V14.7798C16 15.8798 15.1 16.7798 14 16.7798ZM8 5.67979C6.8 5.67979 5.7 6.37979 5.2 7.47978C5.2 7.57978 5.1 7.57979 5.1 7.67979V7.77979C5 7.87979 5 7.97978 5 7.97978V8.67979C5 10.3798 6.4 11.7798 8.1 11.7798C9.8 11.7798 11.2 10.3798 11.2 8.67979V7.97978C11.2 7.97978 11.2 7.87979 11.1 7.77979V7.67979C11.1 7.57979 11 7.57978 11 7.47978C10.3 6.37979 9.2 5.67979 8 5.67979ZM14.2 3.37979C14.2 2.97978 13.8 2.57979 13.4 2.57979H11.8C11.4 2.57979 11 2.97978 11 3.37979V4.97978C11 5.37979 11.4 5.77979 11.8 5.77979H13.4C13.8 5.77979 14.2 5.37979 14.2 4.97978V3.37979ZM14.2 7.47978H12.7C12.8 7.87979 12.9 8.27979 12.9 8.77979C12.9 11.4798 10.7 13.6798 8 13.6798C5.3 13.6798 3.1 11.4798 3.1 8.77979C3.1 8.27979 3.2 7.87979 3.3 7.47978H1.8V14.1798C1.8 14.5798 2.2 14.9798 2.6 14.9798H13.4C13.8 14.9798 14.2 14.5798 14.2 14.1798V7.47978Z" fill="white"/>
</g>
</mask>
<g mask="url(#mask0_1_39)">
<g id="Group_2">
<path id="Vector_2" d="M16 0.779785H0V16.7798H16V0.779785Z" fill="#10162F"/>
</g>
</g>
</g>
</g>
<defs>
<clipPath id="clip0_1_39">
<rect width="16" height="16" fill="white" transform="translate(0 0.779785)"/>
</clipPath>
</defs>
</svg>
