<svg width="16" height="17" viewBox="0 0 16 17" fill="none" xmlns="http://www.w3.org/2000/svg">
<g id="Item &#226;&#134;&#146; Link - Follow us on Twitter &#226;&#134;&#146; Img">
<g id="Mask group">
<mask id="mask0_1_27" style="mask-type:luminance" maskUnits="userSpaceOnUse" x="0" y="2" width="16" height="14">
<g id="Group">
<path id="Vector" d="M16 3.77979C15.4 4.07979 14.8 4.17979 14.1 4.27979C14.8 3.87979 15.3 3.27979 15.5 2.47979C14.9 2.87979 14.2 3.07979 13.4 3.27979C12.8 2.67979 11.9 2.27979 11 2.27979C9.3 2.27979 7.8 3.77979 7.8 5.57979C7.8 5.87979 7.8 6.07979 7.9 6.37979C5.2 6.17979 2.7 4.87979 1.1 2.87979C0.8 3.37979 0.7 3.97979 0.7 4.47979C0.7 5.57979 1.3 6.57979 2.2 7.17979C1.7 7.17979 1.2 6.97978 0.7 6.77979C0.7 8.37979 1.8 9.67978 3.3 9.97978C3 10.1798 2.7 10.1798 2.4 10.1798C2.2 10.1798 2 10.1798 1.8 10.0798C2.2 11.3798 3.4 12.3798 4.9 12.3798C3.8 13.2798 2.4 13.7798 0.8 13.7798H0C1.5 14.6798 3.2 15.2798 5 15.2798C11 15.2798 14.3 10.2798 14.3 5.97978V5.57979C15 5.07979 15.6 4.47979 16 3.77979Z" fill="white"/>
</g>
</mask>
<g mask="url(#mask0_1_27)">
<g id="Group_2">
<path id="Vector_2" d="M16 0.779785H0V16.7798H16V0.779785Z" fill="#10162F"/>
</g>
</g>
</g>
</g>
</svg>
