<svg width="16" height="17" viewBox="0 0 16 17" fill="none" xmlns="http://www.w3.org/2000/svg">
<g id="Item &#226;&#134;&#146; Link - Subscribe to Codecademy on YouTube &#226;&#134;&#146; Img" clip-path="url(#clip0_1_45)">
<g id="Mask group">
<mask id="mask0_1_45" style="mask-type:luminance" maskUnits="userSpaceOnUse" x="0" y="0" width="16" height="17">
<g id="Group">
<path id="Vector" d="M3.93329 4.19296V7.03296C3.93329 7.16556 3.98597 7.29274 4.07974 7.38651C4.1735 7.48028 4.30068 7.53296 4.43329 7.53296C4.5659 7.53296 4.69307 7.48028 4.78684 7.38651C4.88061 7.29274 4.93329 7.16556 4.93329 7.03296V4.19296L6.83329 1.65962C6.87269 1.6049 6.90092 1.54296 6.91638 1.47733C6.93183 1.41171 6.93422 1.34368 6.92338 1.27713C6.91255 1.21058 6.88871 1.14681 6.85324 1.08948C6.81776 1.03214 6.77134 0.982352 6.71662 0.942955C6.6619 0.903559 6.59996 0.875326 6.53433 0.859867C6.46871 0.844409 6.40067 0.842029 6.33413 0.852862C6.19972 0.874742 6.07952 0.949115 5.99996 1.05962L4.39996 3.19296L2.83329 1.05962C2.79389 1.00709 2.74453 0.962839 2.68804 0.929385C2.63154 0.895931 2.569 0.873933 2.504 0.864647C2.439 0.855362 2.3728 0.858969 2.3092 0.875265C2.24559 0.891561 2.18582 0.920226 2.13329 0.959622C2.08076 0.999019 2.03651 1.04838 2.00305 1.10488C1.9696 1.16137 1.9476 1.22391 1.93831 1.28891C1.92903 1.35391 1.93264 1.42011 1.94893 1.48371C1.96523 1.54732 1.99389 1.60709 2.03329 1.65962L3.93329 4.19296ZM6.29996 4.03296V6.03296C6.29996 6.43078 6.45799 6.81231 6.7393 7.09362C7.0206 7.37492 7.40213 7.53296 7.79996 7.53296C8.19778 7.53296 8.57931 7.37492 8.86062 7.09362C9.14192 6.81231 9.29996 6.43078 9.29996 6.03296V4.03296C9.29996 3.63513 9.14192 3.2536 8.86062 2.9723C8.57931 2.69099 8.19778 2.53296 7.79996 2.53296C7.40213 2.53296 7.0206 2.69099 6.7393 2.9723C6.45799 3.2536 6.29996 3.63513 6.29996 4.03296ZM7.29996 4.03296C7.29996 3.90035 7.35263 3.77317 7.4464 3.6794C7.54017 3.58563 7.66735 3.53296 7.79996 3.53296C7.93256 3.53296 8.05974 3.58563 8.15351 3.6794C8.24728 3.77317 8.29996 3.90035 8.29996 4.03296V6.03296C8.29996 6.16556 8.24728 6.29274 8.15351 6.38651C8.05974 6.48028 7.93256 6.53296 7.79996 6.53296C7.66735 6.53296 7.54017 6.48028 7.4464 6.38651C7.35263 6.29274 7.29996 6.16556 7.29996 6.03296V4.03296ZM10.54 6.99296C10.7097 7.16277 10.9114 7.29732 11.1333 7.38885C11.3553 7.48039 11.5932 7.5271 11.8333 7.52629C12.1525 7.52313 12.4653 7.43575 12.74 7.27296C12.7824 7.34911 12.8442 7.41267 12.9191 7.45717C12.9941 7.50167 13.0795 7.52552 13.1666 7.52629C13.2992 7.52629 13.4264 7.47361 13.5202 7.37984C13.6139 7.28607 13.6666 7.1589 13.6666 7.02629V3.02629C13.6666 2.89368 13.6139 2.7665 13.5202 2.67274C13.4264 2.57897 13.2992 2.52629 13.1666 2.52629C13.034 2.52629 12.9068 2.57897 12.8131 2.67274C12.7193 2.7665 12.6666 2.89368 12.6666 3.02629V5.69296C12.6666 5.91397 12.5788 6.12593 12.4225 6.28221C12.2663 6.43849 12.0543 6.52629 11.8333 6.52629C11.6123 6.52629 11.4003 6.43849 11.244 6.28221C11.0878 6.12593 11 5.91397 11 5.69296V3.02629C11 2.89368 10.9473 2.7665 10.8535 2.67274C10.7597 2.57897 10.6326 2.52629 10.5 2.52629C10.3673 2.52629 10.2402 2.57897 10.1464 2.67274C10.0526 2.7665 9.99996 2.89368 9.99996 3.02629V5.69296C9.99914 5.93464 10.0465 6.17408 10.1392 6.39728C10.2319 6.62048 10.3681 6.82298 10.54 6.99296ZM12.3333 12.3596C12.3333 12.2712 12.2982 12.1864 12.2357 12.1239C12.1731 12.0614 12.0884 12.0263 12 12.0263C11.9116 12.0263 11.8268 12.0614 11.7643 12.1239C11.7017 12.1864 11.6666 12.2712 11.6666 12.3596V12.693H12.3333V12.3596ZM9.33329 12.0263C9.24488 12.0263 9.1601 12.0614 9.09759 12.1239C9.03507 12.1864 8.99996 12.2712 8.99996 12.3596V13.693C8.99996 13.7814 9.03507 13.8661 9.09759 13.9287C9.1601 13.9912 9.24488 14.0263 9.33329 14.0263C9.42169 14.0263 9.50648 13.9912 9.56899 13.9287C9.6315 13.8661 9.66662 13.7814 9.66662 13.693V12.3596C9.66662 12.2712 9.6315 12.1864 9.56899 12.1239C9.50648 12.0614 9.42169 12.0263 9.33329 12.0263Z" fill="white"/>
<path id="Vector_2" d="M12.6666 8.69287H3.33331C2.53766 8.69287 1.7746 9.00894 1.21199 9.57155C0.649384 10.1342 0.333313 10.8972 0.333313 11.6929V13.6929C0.333313 14.4885 0.649384 15.2516 1.21199 15.8142C1.7746 16.3768 2.53766 16.6929 3.33331 16.6929H12.6666C13.4623 16.6929 14.2254 16.3768 14.788 15.8142C15.3506 15.2516 15.6666 14.4885 15.6666 13.6929V11.6929C15.6666 10.8972 15.3506 10.1342 14.788 9.57155C14.2254 9.00894 13.4623 8.69287 12.6666 8.69287ZM5.33331 11.3595H4.33331V14.3462C4.33331 14.4346 4.29819 14.5194 4.23568 14.5819C4.17317 14.6444 4.08839 14.6795 3.99998 14.6795C3.91157 14.6795 3.82679 14.6444 3.76428 14.5819C3.70177 14.5194 3.66665 14.4346 3.66665 14.3462V11.3595H2.66665C2.57824 11.3595 2.49346 11.3244 2.43094 11.2619C2.36843 11.1994 2.33331 11.1146 2.33331 11.0262C2.33331 10.9378 2.36843 10.853 2.43094 10.7905C2.49346 10.728 2.57824 10.6929 2.66665 10.6929H5.33331C5.42172 10.6929 5.5065 10.728 5.56902 10.7905C5.63153 10.853 5.66665 10.9378 5.66665 11.0262C5.66665 11.1146 5.63153 11.1994 5.56902 11.2619C5.5065 11.3244 5.42172 11.3595 5.33331 11.3595ZM7.65331 13.6929V14.3595C7.65372 14.4262 7.63415 14.4914 7.59713 14.5468C7.56011 14.6022 7.50735 14.6452 7.44564 14.6703C7.38393 14.6954 7.31611 14.7015 7.25094 14.6877C7.18576 14.6739 7.12621 14.6408 7.07998 14.5929C6.94705 14.6578 6.80123 14.6919 6.65331 14.6929C6.3881 14.6929 6.13374 14.5875 5.94621 14.4C5.75867 14.2124 5.65331 13.9581 5.65331 13.6929V11.6929C5.65331 11.6045 5.68843 11.5197 5.75094 11.4572C5.81346 11.3947 5.89824 11.3595 5.98665 11.3595C6.07505 11.3595 6.15984 11.3947 6.22235 11.4572C6.28486 11.5197 6.31998 11.6045 6.31998 11.6929V13.6929C6.31998 13.7813 6.3551 13.8661 6.41761 13.9286C6.48012 13.9911 6.56491 14.0262 6.65331 14.0262C6.74172 14.0262 6.8265 13.9911 6.88902 13.9286C6.95153 13.8661 6.98665 13.7813 6.98665 13.6929V11.6929C6.98665 11.6045 7.02177 11.5197 7.08428 11.4572C7.14679 11.3947 7.23157 11.3595 7.31998 11.3595C7.40839 11.3595 7.49317 11.3947 7.55568 11.4572C7.61819 11.5197 7.65331 11.6045 7.65331 11.6929V13.6929ZM10.32 13.6929C10.32 13.9581 10.2146 14.2124 10.0271 14.4C9.83955 14.5875 9.5852 14.6929 9.31998 14.6929C9.16703 14.6919 9.0164 14.6554 8.87998 14.5862C8.8327 14.6301 8.77371 14.6593 8.71017 14.6703C8.64663 14.6813 8.58125 14.6736 8.52198 14.6482C8.4627 14.6228 8.41207 14.5808 8.37621 14.5271C8.34036 14.4735 8.32083 14.4107 8.31998 14.3462V10.3462C8.31998 10.2578 8.3551 10.173 8.41761 10.1105C8.48012 10.048 8.56491 10.0129 8.65331 10.0129C8.74172 10.0129 8.8265 10.048 8.88902 10.1105C8.95153 10.173 8.98665 10.2578 8.98665 10.3462V11.4462C9.09347 11.4071 9.20624 11.3868 9.31998 11.3862C9.5852 11.3862 9.83955 11.4916 10.0271 11.6791C10.2146 11.8666 10.32 12.121 10.32 12.3862V13.6929ZM12.0466 14.6929C11.7674 14.6765 11.5043 14.5569 11.3083 14.3573C11.1124 14.1577 10.9978 13.8923 10.9866 13.6129V12.3595C10.9866 12.0943 11.092 11.84 11.2795 11.6524C11.4671 11.4649 11.7214 11.3595 11.9866 11.3595C12.2519 11.3595 12.5062 11.4649 12.6938 11.6524C12.8813 11.84 12.9866 12.0943 12.9866 12.3595V13.0262C12.9866 13.1146 12.9515 13.1994 12.889 13.2619C12.8265 13.3244 12.7417 13.3595 12.6533 13.3595H11.6666V13.6129C11.6772 13.7156 11.7216 13.8119 11.7928 13.8867C11.864 13.9614 11.9579 14.0105 12.06 14.0262C12.2133 14.0262 12.4533 13.9595 12.4533 13.7795C12.4533 13.6911 12.4884 13.6063 12.5509 13.5438C12.6135 13.4813 12.6982 13.4462 12.7866 13.4462C12.8751 13.4462 12.9598 13.4813 13.0223 13.5438C13.0849 13.6063 13.12 13.6911 13.12 13.7795C13.1125 13.9099 13.0788 14.0374 13.021 14.1544C12.9632 14.2715 12.8825 14.3757 12.7836 14.4609C12.6847 14.5461 12.5697 14.6106 12.4454 14.6504C12.321 14.6903 12.19 14.7047 12.06 14.6929H12.0466Z" fill="white"/>
</g>
</mask>
<g mask="url(#mask0_1_45)">
<g id="Group_2">
<path id="Vector_3" d="M16 0.779785H0V16.7798H16V0.779785Z" fill="#10162F"/>
</g>
</g>
</g>
</g>
<defs>
<clipPath id="clip0_1_45">
<rect width="16" height="16" fill="white" transform="translate(0 0.779785)"/>
</clipPath>
</defs>
</svg>
