<svg width="40" height="50" viewBox="0 0 40 50" fill="none" xmlns="http://www.w3.org/2000/svg">
<g clip-path="url(#clip0_24_41)">
<rect width="40" height="50" rx="5" fill="black"/>
<path d="M17.206 10.634V35.792C17.206 36.212 17.304 36.52 17.5 36.716C17.724 36.912 18.2 37.01 18.928 37.01H22.036V41H16.702C15.582 41 14.644 40.916 13.888 40.748C13.16 40.58 12.516 40.244 11.956 39.74C11.424 39.208 11.004 38.62 10.696 37.976C10.416 37.332 10.192 36.366 10.024 35.078C9.772 33.146 9.646 30.556 9.646 27.308C9.646 24.032 9.66 21.722 9.688 20.378C9.744 19.034 9.856 17.732 10.024 16.472C10.192 15.184 10.416 14.232 10.696 13.616C11.004 12.972 11.424 12.398 11.956 11.894C12.516 11.362 13.16 11.026 13.888 10.886C14.644 10.718 15.582 10.634 16.702 10.634H17.206ZM18.886 10.676H24.22C25.34 10.676 26.264 10.76 26.992 10.928C27.748 11.096 28.392 11.446 28.924 11.978C29.484 12.482 29.904 13.056 30.184 13.7C30.492 14.344 30.73 15.31 30.898 16.598C31.15 18.53 31.276 21.134 31.276 24.41C31.276 27.658 31.248 29.954 31.192 31.298C31.164 32.642 31.066 33.958 30.898 35.246C30.73 36.506 30.492 37.458 30.184 38.102C29.904 38.718 29.484 39.292 28.924 39.824C28.392 40.328 27.748 40.664 26.992 40.832C26.264 40.972 25.34 41.042 24.22 41.042H23.716V15.884C23.716 15.464 23.604 15.156 23.38 14.96C23.184 14.764 22.722 14.666 21.994 14.666H18.886V10.676Z" fill="white"/>
</g>
<defs>
<clipPath id="clip0_24_41">
<rect width="40" height="50" fill="white"/>
</clipPath>
</defs>
</svg>
