<svg width="415" height="100" viewBox="0 0 415 100" fill="none" xmlns="http://www.w3.org/2000/svg">
<g clip-path="url(#clip0_20_25)">
<path d="M99.195 31.6102C103.483 29.8182 107.387 28.9222 110.907 28.9222C114.491 28.9222 117.435 30.0422 119.739 32.2822C122.043 34.4582 123.195 37.5622 123.195 41.5942V83.7383H116.379V42.2662C116.379 37.5943 114.011 35.2583 109.275 35.2583C106.267 35.2583 103.003 36.0903 99.483 37.7542V83.7383H92.667V29.1143H99.195V31.6102ZM151.819 19.2262V29.1143H164.011V35.1622H151.819V71.6423C151.819 73.8823 152.363 75.5143 153.451 76.5383C154.539 77.4983 156.203 77.9783 158.443 77.9783C160.683 77.9783 162.859 77.6263 164.971 76.9223V83.1623C162.411 83.8023 160.011 84.1223 157.771 84.1223C149.195 84.1223 144.907 80.0583 144.907 71.9303V35.1622H138.955V29.1143H145.195L147.115 19.2262H151.819ZM205.581 43.1302C205.581 37.1782 202.637 34.2022 196.749 34.2022C190.861 34.2022 187.917 37.1782 187.917 43.1302V69.7222C187.917 75.7383 190.861 78.7463 196.749 78.7463C202.637 78.7463 205.581 75.7383 205.581 69.7222V43.1302ZM181.197 43.0342C181.197 38.4902 182.477 34.8742 185.037 32.1863C187.597 29.4982 191.501 28.1542 196.749 28.1542C201.997 28.1542 205.901 29.4982 208.461 32.1863C211.021 34.8742 212.301 38.4902 212.301 43.0342V69.8182C212.301 74.3623 211.021 77.9783 208.461 80.6663C205.901 83.3543 201.997 84.6983 196.749 84.6983C191.501 84.6983 187.597 83.3543 185.037 80.6663C182.477 77.9783 181.197 74.3623 181.197 69.8182V43.0342ZM232.786 42.4583C232.786 33.2423 238.162 28.6343 248.914 28.6343C252.882 28.6343 256.274 29.0823 259.09 29.9783V36.2182C256.018 35.3862 252.69 34.9702 249.106 34.9702C245.522 34.9702 243.026 35.6102 241.618 36.8902C240.274 38.1062 239.602 40.0262 239.602 42.6502V70.2983C239.602 72.9863 240.274 74.9383 241.618 76.1543C243.026 77.3703 245.586 77.9783 249.298 77.9783C253.01 77.9783 256.338 77.4663 259.282 76.4423V82.8743C255.826 83.7703 252.37 84.2183 248.914 84.2183C238.162 84.2183 232.786 79.6743 232.786 70.5862V42.4583ZM301.821 43.1302C301.821 37.1782 298.877 34.2022 292.989 34.2022C287.101 34.2022 284.157 37.1782 284.157 43.1302V69.7222C284.157 75.7383 287.101 78.7463 292.989 78.7463C298.877 78.7463 301.821 75.7383 301.821 69.7222V43.1302ZM277.437 43.0342C277.437 38.4902 278.717 34.8742 281.277 32.1863C283.837 29.4982 287.741 28.1542 292.989 28.1542C298.237 28.1542 302.141 29.4982 304.701 32.1863C307.261 34.8742 308.541 38.4902 308.541 43.0342V69.8182C308.541 74.3623 307.261 77.9783 304.701 80.6663C302.141 83.3543 298.237 84.6983 292.989 84.6983C287.741 84.6983 283.837 83.3543 281.277 80.6663C278.717 77.9783 277.437 74.3623 277.437 69.8182V43.0342ZM352.834 35.3542H344.962C338.882 35.3542 335.842 38.1062 335.842 43.6102V69.8182C335.842 75.1943 338.434 77.8823 343.618 77.8823C347.458 77.8823 350.53 76.7943 352.834 74.6183V35.3542ZM352.834 14.6182H359.65V83.7383H353.026V80.5703C350.146 82.8743 346.562 84.0263 342.274 84.0263C337.986 84.0263 334.69 82.8423 332.386 80.4743C330.146 78.1063 329.026 74.7143 329.026 70.2983V43.5142C329.026 38.9702 330.37 35.4502 333.058 32.9542C335.746 30.3942 339.33 29.1143 343.81 29.1143H352.834V14.6182ZM381.083 69.8182V43.1302C381.083 38.5862 382.363 34.9702 384.923 32.2822C387.547 29.5302 391.483 28.1542 396.731 28.1542C401.979 28.1542 405.851 29.5302 408.347 32.2822C410.907 34.9702 412.187 38.5862 412.187 43.1302V59.8342H387.803V69.5303C387.803 72.4103 388.699 74.5543 390.491 75.9623C392.283 77.3703 395.067 78.0743 398.843 78.0743C402.619 78.0743 406.523 77.4983 410.555 76.3463V82.6823C407.355 83.7063 403.547 84.2183 399.131 84.2183C387.099 84.2183 381.083 79.4183 381.083 69.8182ZM387.803 54.1702H405.659V43.1302C405.659 37.1142 402.683 34.1062 396.731 34.1062C390.779 34.1062 387.803 37.1142 387.803 43.1302V54.1702Z" fill="black"/>
<rect width="79.9591" height="99.9489" rx="13" fill="black"/>
<path d="M34.3091 19.1207V69.4552C34.3091 70.2955 34.506 70.9118 34.8998 71.3039C35.3498 71.6961 36.3061 71.8921 37.7687 71.8921H44.0129V79.8751H33.2966C31.0464 79.8751 29.1619 79.707 27.643 79.3709C26.1805 79.0348 24.8866 78.3625 23.7615 77.3542C22.6927 76.2898 21.8489 75.1133 21.2301 73.8249C20.6676 72.5364 20.2176 70.6037 19.88 68.0267C19.3737 64.1613 19.1206 58.9794 19.1206 52.481C19.1206 45.9266 19.1487 41.3049 19.205 38.6159C19.3175 35.9269 19.5425 33.3219 19.88 30.801C20.2176 28.224 20.6676 26.3193 21.2301 25.0869C21.8489 23.7984 22.6927 22.65 23.7615 21.6416C24.8866 20.5772 26.1805 19.905 27.643 19.6249C29.1619 19.2887 31.0464 19.1207 33.2966 19.1207H34.3091ZM37.6843 19.2047H48.4007C50.6508 19.2047 52.5072 19.3728 53.9698 19.7089C55.4887 20.045 56.7825 20.7453 57.8513 21.8097C58.9764 22.818 59.8202 23.9665 60.3827 25.2549C61.0015 26.5434 61.4797 28.4761 61.8172 31.0531C62.3235 34.9185 62.5766 40.1284 62.5766 46.6828C62.5766 53.1812 62.5204 57.7749 62.4079 60.4639C62.3516 63.1529 62.1547 65.7859 61.8172 68.3628C61.4797 70.8838 61.0015 72.7885 60.3827 74.0769C59.8202 75.3094 58.9764 76.4578 57.8513 77.5222C56.7825 78.5306 55.4887 79.2028 53.9698 79.539C52.5072 79.8191 50.6508 79.9591 48.4007 79.9591H47.3881V29.6245C47.3881 28.7842 47.1631 28.168 46.7131 27.7759C46.3193 27.3837 45.3911 27.1876 43.9285 27.1876H37.6843V19.2047Z" fill="white"/>
</g>
<defs>
<clipPath id="clip0_20_25">
<rect width="415" height="100" fill="white"/>
</clipPath>
</defs>
</svg>
