<svg width="50" height="50" viewBox="0 0 50 50" fill="none" xmlns="http://www.w3.org/2000/svg">
<path d="M25 5C28.0203 5.00175 31.0009 5.68751 33.7183 7.00584C36.4357 8.32417 38.8192 10.2408 40.6899 12.612C42.5607 14.9831 43.8701 17.7472 44.52 20.6967C45.1699 23.6462 45.1432 26.7046 44.4422 29.6424C43.7411 32.5802 42.3838 35.3211 40.472 37.6593C38.5603 39.9975 36.1438 41.8724 33.404 43.1433C30.6641 44.4142 27.6719 45.048 24.6521 44.9972C21.6322 44.9464 18.6631 44.2123 15.9675 42.85L15.665 42.6875L6.5525 44.9625C6.37713 45.0066 6.19428 45.0121 6.01656 44.9787C5.83885 44.9453 5.6705 44.8737 5.52315 44.7688C5.37579 44.664 5.25293 44.5285 5.16304 44.3716C5.07315 44.2147 5.01838 44.0401 5.0025 43.86V43.655L5.0375 43.4475L7.3125 34.3375L7.155 34.0375C6.01096 31.7854 5.30672 29.3358 5.08 26.82L5.0175 25.865L5 25C5 19.6957 7.10714 14.6086 10.8579 10.8579C14.6086 7.10714 19.6957 5 25 5ZM25 7.5C21.9462 7.4995 18.9453 8.29816 16.2958 9.8166C13.6462 11.335 11.4401 13.5204 9.89666 16.1555C8.35325 18.7906 7.52628 21.7838 7.49792 24.8375C7.46956 27.8912 8.2408 30.8992 9.735 33.5625C9.851 33.7696 9.90563 34.0055 9.8925 34.2425L9.8575 34.4775L7.9675 42.03L15.5275 40.145C15.6812 40.1071 15.8407 40.0986 15.9975 40.12L16.225 40.1725L16.4425 40.27C18.7759 41.5763 21.3775 42.3304 24.0478 42.4746C26.718 42.6187 29.3858 42.149 31.8462 41.1015C34.3066 40.0539 36.4942 38.4565 38.2411 36.4318C39.9879 34.4071 41.2475 32.009 41.9232 29.4216C42.5989 26.8343 42.6726 24.1265 42.1387 21.5062C41.6048 18.8859 40.4776 16.4228 38.8435 14.3061C37.2094 12.1893 35.1119 10.4752 32.7121 9.2954C30.3124 8.11556 27.6741 7.50137 25 7.5Z" fill="black"/>
</svg>
